<?xml version="1.0" standalone="no"?>
<!DOCTYPE svg PUBLIC "-//W3C//DTD SVG 20010904//EN"
 "http://www.w3.org/TR/2001/REC-SVG-20010904/DTD/svg10.dtd">
<svg version="1.0" xmlns="http://www.w3.org/2000/svg"
 width="500.000000pt" height="500.000000pt" viewBox="0 0 500.000000 500.000000"
 preserveAspectRatio="xMidYMid meet">

<g transform="translate(0.000000,500.000000) scale(0.100000,-0.100000)"
fill="#000000" stroke="none">
<path d="M0 2500 l0 -2500 2500 0 2500 0 0 2500 0 2500 -2500 0 -2500 0 0
-2500z m1762 658 c56 -39 61 -134 8 -186 -50 -50 -120 -51 -170 0 -52 52 -52
129 1 179 45 42 107 45 161 7z m722 -369 c124 -46 215 -173 224 -315 7 -119
19 -114 -276 -114 l-244 0 7 -27 c9 -38 42 -81 75 -98 57 -29 153 -14 189 29
24 29 79 20 117 -18 46 -46 45 -78 -5 -126 -46 -44 -111 -69 -202 -77 -241
-21 -442 207 -400 453 44 248 279 382 515 293z m535 0 c55 -19 61 -44 61 -274
0 -164 3 -212 15 -235 29 -56 93 -67 144 -24 l31 26 0 214 c0 238 5 260 61
290 40 20 89 12 123 -23 l26 -26 0 -223 c0 -199 -2 -229 -20 -277 -27 -73 -79
-130 -148 -164 -75 -37 -191 -40 -263 -6 -60 27 -118 86 -149 148 -22 47 -24
63 -28 260 -2 116 0 226 5 245 6 22 21 43 43 58 37 25 53 27 99 11z m-1269
-48 c37 -27 53 -83 36 -125 -19 -45 -52 -66 -104 -66 -62 0 -102 40 -102 103
0 98 92 146 170 88z m-10 -226 c16 -8 34 -24 40 -34 6 -12 10 -94 10 -195 l0
-176 -28 -31 c-24 -27 -36 -32 -76 -33 -42 -1 -51 3 -77 32 l-29 32 0 174 c0
162 1 175 21 200 36 46 88 58 139 31z"/>
<path d="M2270 2622 c-36 -17 -83 -77 -77 -96 2 -7 54 -11 148 -11 l144 0 -3
25 c-3 28 -35 66 -74 86 -37 19 -96 18 -138 -4z"/>
</g>
</svg>
